<?xml version="1.0" standalone="no"?>
<!DOCTYPE svg PUBLIC "-//W3C//DTD SVG 20010904//EN"
 "http://www.w3.org/TR/2001/REC-SVG-20010904/DTD/svg10.dtd">
<svg version="1.0" xmlns="http://www.w3.org/2000/svg"
 width="324.000000pt" height="298.000000pt" viewBox="0 0 324.000000 298.000000"
 preserveAspectRatio="xMidYMid meet">

<g transform="translate(0.000000,298.000000) scale(0.100000,-0.100000)"
fill="#000000" stroke="none">
<path d="M0 1490 l0 -1490 1620 0 1620 0 0 1490 0 1490 -1620 0 -1620 0 0
-1490z m1770 1362 c192 -63 342 -211 406 -402 26 -77 26 -263 0 -338 -63 -183
-210 -309 -388 -335 -187 -27 -370 75 -422 235 -61 189 63 380 227 352 54 -9
107 -60 107 -103 0 -33 -32 -71 -60 -71 -48 0 -55 -72 -11 -114 60 -57 177
-39 234 36 85 111 71 262 -34 374 -63 66 -128 100 -217 115 -319 53 -582 -281
-496 -630 38 -153 151 -292 299 -368 186 -96 338 -104 586 -32 57 16 139 35
181 41 152 22 369 -22 499 -101 197 -120 328 -293 380 -501 30 -121 24 -303
-14 -408 -38 -107 -82 -177 -169 -264 -124 -124 -273 -187 -445 -188 -166 0
-296 51 -403 159 -106 107 -150 210 -150 352 0 172 90 323 235 395 53 25 71
29 145 28 98 0 154 -21 215 -81 43 -42 85 -124 85 -168 0 -80 -48 -153 -116
-175 -25 -9 -40 -8 -68 4 l-37 15 2 62 c2 51 -1 65 -17 76 -50 37 -141 -22
-164 -106 -19 -73 3 -144 67 -207 55 -55 104 -74 199 -74 73 0 88 4 151 35
273 137 301 520 53 737 -60 52 -152 101 -220 117 -58 13 -211 14 -281 1 -97
-18 -214 -84 -300 -170 -63 -63 -85 -94 -122 -171 -24 -52 -52 -123 -62 -159
-70 -262 -113 -346 -238 -477 -169 -176 -362 -263 -579 -263 -304 1 -583 183
-694 455 -26 63 -29 84 -32 211 -3 119 -1 151 16 207 58 194 208 347 391 401
84 25 221 21 302 -8 127 -45 223 -126 271 -232 20 -42 23 -65 23 -169 0 -106
-3 -125 -24 -165 -55 -107 -154 -170 -266 -170 -101 0 -171 50 -195 140 -28
105 53 180 124 115 15 -14 32 -25 37 -25 15 0 53 21 61 34 23 34 -7 141 -48
178 -60 53 -161 62 -241 23 -135 -67 -204 -217 -173 -370 46 -229 296 -383
542 -336 275 54 462 311 446 615 -10 179 -66 285 -261 492 -169 179 -226 272
-269 434 -25 96 -26 273 -4 380 10 42 39 121 67 180 45 91 63 115 143 195 101
101 187 153 316 192 66 20 92 22 210 20 105 -3 150 -8 200 -25z"/>
</g>
</svg>
